<svg xmlns="http://www.w3.org/2000/svg" version="1.1" xmlns:xlink="http://www.w3.org/1999/xlink" xmlns:svgjs="http://svgjs.dev/svgjs" width="100%" height="100%" viewBox="0 0 1000 600"><rect width="1000" height="600" x="0" y="0" fill="#ea580c"/><g><rect width="333.3333333333333" height="333.3333333333333" rx="13.333333333333334" ry="13.333333333333334" y="255.16614129669398" fill="#059669" transform="matrix(0.5366099799662218,0,0,0.5366099799662218,0,73.64033266308141)" x="232.94392395019528"/><path d="M379.14927146918853 496.83280594132265L363.4945100383803 496.83280594132265L363.4945100383803 346.83281048262876L379.14927146918853 346.83281048262876L379.14927146918853 496.83280594132265ZM269.6552271651142 496.83280594132265L253.79213240728004 496.83280594132265L253.79213240728004 346.83281048262876L269.6552271651142 346.83281048262876L269.6552271651142 496.83280594132265ZM365.01236713528385 427.60661756098096L267.92903674118475 427.60661756098096L267.92903674118475 413.6780465541023L365.01236713528385 413.6780465541023L365.01236713528385 427.60661756098096ZM443.8516504626806 496.83280594132265L427.9885557048466 496.83280594132265L427.9885557048466 346.83281048262876L484.1492682902742 346.83281048262876Q503.22664866508023 346.83281048262876 516.9171244410722 352.9340007741034Q530.637362120925 359.0351910655781 538.0480761822771 370.5232859558669Q545.4290283397684 381.9816189422949 545.4290283397684 398.261380354181L545.4290283397684 398.261380354181Q545.4290283397684 414.1244751120151 538.0480761822771 425.5828080984431Q530.637362120925 437.0411410848711 516.9171244410722 443.2613789917891Q503.22664866508023 449.4816168987072 484.1492682902742 449.4816168987072L484.1492682902742 449.4816168987072L436.79807924765873 449.4816168987072L443.8516504626806 441.9816171257725L443.8516504626806 496.83280594132265ZM443.8516504626806 353.05304838954686L443.8516504626806 443.2613789917891L436.79807924765873 435.55304589182845L483.70283973236144 435.55304589182845Q506.2028390511655 435.55304589182845 517.8992672684803 425.791141425469Q529.5659335819344 416.05899886297044 529.5659335819344 398.261380354181L529.5659335819344 398.261380354181Q529.5659335819344 380.25542851836553 517.8992672684803 370.40423834042355Q506.2028390511655 360.5530481624815 483.70283973236144 360.5530481624815L483.70283973236144 360.5530481624815L436.79807924765873 360.5530481624815L443.8516504626806 353.05304838954686Z " fill="#ffffff" transform="matrix(0.5366099799662218,0,0,0.5366099799662218,0,73.64033266308141)"/><path d="M767.0891942618441 495.8287257958006L752.4183136009326 495.8287257958006L752.4183136009326 355.25602896881577L767.0891942618441 355.25602896881577L767.0891942618441 495.8287257958006ZM664.4767038597653 495.8287257958006L649.6105833421497 495.8287257958006L649.6105833421497 355.25602896881577L664.4767038597653 355.25602896881577L664.4767038597653 495.8287257958006ZM753.8407754140628 430.9533105538231L662.859002189931 430.9533105538231L662.859002189931 417.9001315627459L753.8407754140628 417.9001315627459L753.8407754140628 430.9533105538231ZM824.1271238275554 495.8287257958006L809.8467228800521 495.8287257958006L809.8467228800521 390.399203175562L824.1271238275554 390.399203175562L824.1271238275554 495.8287257958006ZM817.098488986206 367.1098774115674L817.098488986206 367.1098774115674Q812.6637550982118 367.1098774115674 809.651483023348 364.0976053367035Q806.639210948484 361.0853332618395 806.639210948484 356.8737306386501L806.639210948484 356.8737306386501Q806.639210948484 352.63423660736004 809.651483023348 349.73353016489847Q812.6637550982118 346.8328237224369 817.098488986206 346.8328237224369L817.098488986206 346.8328237224369Q821.5053314660996 346.8328237224369 824.5176035409636 349.6219645324961Q827.5298756158276 352.4389967506559 827.5298756158276 356.65059937384535L827.5298756158276 356.65059937384535Q827.5298756158276 361.0853332618395 824.6291691733659 364.0976053367035Q821.7005713228037 367.1098774115674 817.098488986206 367.1098774115674ZM878.1248899103018 495.8287257958006L863.8723803708992 495.8287257958006L863.8723803708992 390.399203175562L877.5391703401895 390.399203175562L877.5391703401895 419.127353519172L876.1167085270592 414.10690006106535Q880.5514424150534 402.0578117616095 890.9828290446749 395.7264621227751Q901.442107082397 389.39511248394064 916.8939471701251 389.39511248394064L916.8939471701251 389.39511248394064L916.8939471701251 403.257142309935Q916.0850963352079 403.257142309935 915.2762455002908 403.14557667753263Q914.4952860734742 403.06190245323086 913.6864352385569 403.06190245323086L913.6864352385569 403.06190245323086Q897.0073731944028 403.06190245323086 887.5800772564027 413.18648359374583Q878.1248899103018 423.3389561423614 878.1248899103018 441.99830816165763L878.1248899103018 441.99830816165763L878.1248899103018 495.8287257958006ZM989.1884769668602 496.832816487422L989.1884769668602 496.832816487422Q972.7325461875107 496.832816487422 960.2650867665461 489.91574727847507Q947.8255187536819 482.9707866614276 940.7968839123326 470.83802413767Q933.7682490709834 458.67737020581177 933.7682490709834 443.0023988532789L933.7682490709834 443.0023988532789Q933.7682490709834 427.3553189088467 940.4900784232261 415.30623060939087Q947.2119077754688 403.257142309935 958.9541905858182 396.3121816928875Q970.7243648042681 389.39511248394064 985.3673540570791 389.39511248394064L985.3673540570791 389.39511248394064Q1000.2334745746947 389.39511248394064 1011.7805175283399 396.1169418361834Q1023.3275604819851 402.8387711884261 1029.965715609926 414.99942512028434Q1036.5759793297666 427.1600790521425 1036.5759793297666 443.0023988532789L1036.5759793297666 443.0023988532789Q1036.5759793297666 444.00648954490026 1036.4923051054648 445.12214586892395Q1036.3807394730625 446.23780219294764 1036.3807394730625 447.4371327412731L1036.3807394730625 447.4371327412731L944.6180068221138 447.4371327412731L944.6180068221138 436.78261484684685L1028.7384936535 436.78261484684685L1023.132320625281 440.9942174700363Q1023.132320625281 429.55874014879345 1018.1955413914761 420.63348955660393Q1013.2866535657719 411.68034755631385 1004.863448319393 406.65989409820725Q996.4123516649136 401.63944064010064 985.3673540570791 401.63944064010064L985.3673540570791 401.63944064010064Q974.5175963059487 401.63944064010064 965.8991512028656 406.65989409820725Q957.252814691682 411.68034755631385 952.4276010902796 420.71716378090576Q947.6302788969778 429.7539800054976 947.6302788969778 441.41258859154516L947.6302788969778 441.41258859154516L947.6302788969778 443.61600983149197Q947.6302788969778 455.6650981309478 952.9296464360903 464.81347998794206Q958.2569053833033 473.93397043683575 967.7957669537059 479.0659895273447Q977.3346285241084 484.1701172097531 989.5789566802684 484.1701172097531L989.5789566802684 484.1701172097531Q999.2293838830734 484.1701172097531 1007.5689149051505 480.76736542148086Q1015.9084459272276 477.3646136332086 1021.9329900769554 470.3359787918593L1021.9329900769554 470.3359787918593L1029.965715609926 479.56803487315534Q1022.9370807685768 487.9912401195342 1012.394128506553 492.4259740075284Q1001.851176244529 496.832816487422 989.1884769668602 496.832816487422ZM1083.5730019792645 495.8287257958006L1068.7068814616487 495.8287257958006L1068.7068814616487 355.25602896881577L1121.3379685474665 355.25602896881577Q1139.1884697318455 355.25602896881577 1152.0464088662184 360.97376762943713Q1164.9043480005917 366.69150629005856 1171.8214172095381 377.45758981688715Q1178.7663778265855 388.1957819356152 1178.7663778265855 403.45238216663915L1178.7663778265855 403.45238216663915Q1178.7663778265855 418.31850268425484 1171.8214172095381 429.0566948029828Q1164.9043480005917 439.7948869217108 1152.0464088662184 445.6241912147346Q1139.1884697318455 451.4534955077584 1121.3379685474665 451.4534955077584L1121.3379685474665 451.4534955077584L1076.9348468513235 451.4534955077584L1083.5730019792645 444.42486066640913L1083.5730019792645 495.8287257958006ZM1083.5730019792645 361.0853332618395L1083.5730019792645 445.6241912147346L1076.9348468513235 438.4003165166812L1120.9195974259574 438.4003165166812Q1142.005501950005 438.4003165166812 1152.966825333538 429.251934659687Q1163.9002573089701 420.1314442107933 1163.9002573089701 403.45238216663915L1163.9002573089701 403.45238216663915Q1163.9002573089701 386.57808026578084 1152.966825333538 377.3460241844848Q1142.005501950005 368.11396810318877 1120.9195974259574 368.11396810318877L1120.9195974259574 368.11396810318877L1076.9348468513235 368.11396810318877L1083.5730019792645 361.0853332618395ZM1252.8738491498593 496.832816487422L1252.8738491498593 496.832816487422Q1237.5893575107348 496.832816487422 1225.456594986977 489.91574727847507Q1213.2959410551189 482.9707866614276 1206.2673062137696 470.83802413767Q1199.2386713724204 458.67737020581177 1199.2386713724204 443.0023988532789L1199.2386713724204 443.0023988532789Q1199.2386713724204 427.1600790521425 1206.2673062137696 415.1109907526867Q1213.2959410551189 403.06190245323086 1225.3450293545748 396.22850746858575Q1237.3941176540307 389.39511248394064 1252.8738491498593 389.39511248394064L1252.8738491498593 389.39511248394064Q1268.5209290942917 389.39511248394064 1280.6815830261498 396.22850746858575Q1292.8143455499076 403.06190245323086 1299.759306166955 415.1109907526867Q1306.676375375902 427.1600790521425 1306.676375375902 443.0023988532789L1306.676375375902 443.0023988532789Q1306.676375375902 458.67737020581177 1299.759306166955 470.83802413767Q1292.8143455499076 482.9707866614276 1280.5700173937475 489.91574727847507Q1268.3256892375875 496.832816487422 1252.8738491498593 496.832816487422ZM1252.8738491498593 484.1701172097531L1252.8738491498593 484.1701172097531Q1264.3093264711024 484.1701172097531 1273.15090283899 479.0659895273447Q1281.9924792068778 473.93397043683575 1287.0966068892862 464.5903487231373Q1292.2286259797952 455.27461841753956 1292.2286259797952 443.0023988532789L1292.2286259797952 443.0023988532789Q1292.2286259797952 430.5628308404148 1287.0966068892862 421.33077475911875Q1281.9924792068778 412.0987186778227 1273.15090283899 406.96669958731377Q1264.3093264711024 401.83468049680476 1253.0690890065634 401.83468049680476L1253.0690890065634 401.83468049680476Q1241.828851542025 401.83468049680476 1232.9872751741373 406.96669958731377Q1224.1456988062491 412.0987186778227 1218.9300054914388 421.33077475911875Q1213.714312176628 430.5628308404148 1213.714312176628 443.0023988532789L1213.714312176628 443.0023988532789Q1213.714312176628 455.27461841753956 1218.9300054914388 464.5903487231373Q1224.1456988062491 473.93397043683575 1232.9872751741373 479.0659895273447Q1241.828851542025 484.1701172097531 1252.8738491498593 484.1701172097531ZM1350.047514972323 495.8287257958006L1335.7950054329203 495.8287257958006L1335.7950054329203 390.399203175562L1349.4617954022106 390.399203175562L1349.4617954022106 419.127353519172L1348.0393335890803 414.10690006106535Q1352.4740674770742 402.0578117616095 1362.9054541066957 395.7264621227751Q1373.3647321444178 389.39511248394064 1388.816572232146 389.39511248394064L1388.816572232146 389.39511248394064L1388.816572232146 403.257142309935Q1388.0077213972286 403.257142309935 1387.1988705623116 403.14557667753263Q1386.4179111354952 403.06190245323086 1385.6090603005778 403.06190245323086L1385.6090603005778 403.06190245323086Q1368.929998256424 403.06190245323086 1359.5027023184234 413.18648359374583Q1350.047514972323 423.3389561423614 1350.047514972323 441.99830816165763L1350.047514972323 441.99830816165763L1350.047514972323 495.8287257958006ZM1449.6756247076382 496.832816487422L1449.6756247076382 496.832816487422Q1434.8095041900228 496.832816487422 1426.776778657052 488.8000909544514Q1418.7440531240818 480.76736542148086 1418.7440531240818 466.09648476056935L1418.7440531240818 466.09648476056935L1418.7440531240818 367.1098774115674L1432.996562663484 367.1098774115674L1432.996562663484 465.31552533375276Q1432.996562663484 474.5475814150488 1437.7102106324842 479.56803487315534Q1442.4238586014844 484.588488331262 1451.265434969372 484.588488331262L1451.265434969372 484.588488331262Q1460.720622315473 484.588488331262 1466.940406321905 479.1496637516465L1466.940406321905 479.1496637516465L1471.9608597800116 489.4137019326644Q1467.7492571568223 493.206933434345 1461.808387231396 495.01987496088344Q1455.8954087140705 496.832816487422 1449.6756247076382 496.832816487422ZM1465.1274647953664 402.2530516183137L1399.8615698399803 402.2530516183137L1399.8615698399803 390.399203175562L1465.1274647953664 390.399203175562L1465.1274647953664 402.2530516183137ZM1577.5856222569541 495.8287257958006L1563.918832287664 495.8287257958006L1563.918832287664 472.5394000318061L1563.3331127175516 468.718277122025L1563.3331127175516 429.7539800054976Q1563.3331127175516 416.31032130101215 1555.8024325303918 409.0864466029588Q1548.271752343232 401.83468049680476 1533.4056318256162 401.83468049680476L1533.4056318256162 401.83468049680476Q1523.1694850526987 401.83468049680476 1513.9374289714028 405.26532369317766Q1504.677481482006 408.6680754814499 1498.26245761887 414.3021399177695L1498.26245761887 414.3021399177695L1491.847433755734 403.6476220233433Q1499.8801592887044 396.81422703869816 1511.1203967532429 393.1046697613194Q1522.3606342177818 389.39511248394064 1534.800202230646 389.39511248394064L1534.800202230646 389.39511248394064Q1555.3003871845813 389.39511248394064 1566.4290590167175 399.54758503255624Q1577.5856222569541 409.6721661730712 1577.5856222569541 430.36759098371067L1577.5856222569541 430.36759098371067L1577.5856222569541 495.8287257958006ZM1527.5763275325926 496.832816487422L1527.5763275325926 496.832816487422Q1515.7224790898408 496.832816487422 1506.9924683543554 492.92801935333904Q1498.26245761887 488.99533081115555 1493.6324838741716 482.07826160220867Q1489.030401537574 475.1333009851612 1489.030401537574 466.09648476056935L1489.030401537574 466.09648476056935Q1489.030401537574 457.8685193708946 1492.935198671657 451.1466900186519Q1496.8678872138407 444.42486066640913 1505.7931378060298 440.2969322675215Q1514.7183883982193 436.19689527673444 1529.7797487725393 436.19689527673444L1529.7797487725393 436.19689527673444L1566.1501449357115 436.19689527673444L1566.1501449357115 446.82352176306006L1530.198119894048 446.82352176306006Q1514.9415196630239 446.82352176306006 1509.000649737598 452.2623463426756Q1503.0876712202726 457.6732795141905 1503.0876712202726 465.706005047161L1503.0876712202726 465.706005047161Q1503.0876712202726 474.7428212717529 1510.1163060616218 480.1537544432678Q1517.144940902971 485.5925790228833 1529.7797487725393 485.5925790228833L1529.7797487725393 485.5925790228833Q1541.8288370719952 485.5925790228833 1550.586739215581 480.07008021896604Q1559.3167499510664 474.5475814150488 1563.3331127175516 464.08830337732667L1563.3331127175516 464.08830337732667L1566.5406246491198 473.93397043683575Q1562.5242618826346 484.3932484745578 1552.5949205988236 490.6130324809899Q1542.637687906912 496.832816487422 1527.5763275325926 496.832816487422ZM1630.6071890561802 495.8287257958006L1616.3546795167777 495.8287257958006L1616.3546795167777 346.8328237224369L1630.6071890561802 346.8328237224369L1630.6071890561802 495.8287257958006Z " fill="#ffffff" transform="matrix(0.5366099799662218,0,0,0.5366099799662218,0,73.64033266308141)"/></g></svg>